# xmcd
#
# Track frame offsets: 
#        182
#        12460
#        25955
#        36595
#        48815
#        59172
#        69815
#        82680
#        94010
#        104307
#
# Disc length: 1573 seconds
#
# Revision: 3
# Processed by: cddbd v1.5.2PL0 Copyright (c) Steve Scherf et al.
# Submitted via: ExactAudioCopyFreeDBPlugin 1.0
#
DISCID=7906230a
DTITLE=Various Artist - Rare Soul:  Beach Music Classics
DYEAR=1992
DGENRE=Soul
TTITLE0=Archie Bell and The Drells - There's Gonna Be a Showdown
TTITLE1=The Clovers - Nip Sip
TTITLE2=LaVern Baker and Jimmy Ricks - You're the Boss
TTITLE3=Willie Tee - Thank You John
TTITLE4=Clarence Carter - Too Weak to Fight
TTITLE5=Barbara Lewis - Think a Little Sugar
TTITLE6=The Coasters - Zing! Went the Strings of My Heart
TTITLE7=The Drifters - One Way Love
TTITLE8=Lenny O'Henry - Across the Street
TTITLE9=The Magic Lanterns - Shame, Shame
EXTD=
EXTT0=
EXTT1=
EXTT2=
EXTT3=
EXTT4=
EXTT5=
EXTT6=
EXTT7=
EXTT8=
EXTT9=
PLAYORDER=
